<mxfile host="app.diagrams.net" modified="2020-09-01T09:17:48.239Z" agent="5.0 (Macintosh; Intel Mac OS X 10_14_6) AppleWebKit/537.36 (KHTML, like Gecko) Chrome/84.0.4147.135 Safari/537.36" etag="3Z5TP57AGnncN9JxB5Sg" version="13.6.5" type="github">
  <diagram id="uxo4eNbDznF9dRK5j50d" name="Page-1">
    <mxGraphModel dx="1413" dy="1106" grid="1" gridSize="10" guides="1" tooltips="1" connect="1" arrows="1" fold="1" page="1" pageScale="1" pageWidth="827" pageHeight="1169" math="0" shadow="0">
      <root>
        <mxCell id="0" />
        <mxCell id="1" parent="0" />
        <mxCell id="AcKZlYESja90F1cJ6E_u-2" value="" style="rounded=0;whiteSpace=wrap;html=1;fillColor=#f5f5f5;strokeColor=#666666;fontColor=#333333;" vertex="1" parent="1">
          <mxGeometry x="-90" y="30" width="560" height="400" as="geometry" />
        </mxCell>
        <mxCell id="AcKZlYESja90F1cJ6E_u-3" value="243" style="text;html=1;strokeColor=none;fillColor=none;align=center;verticalAlign=middle;whiteSpace=wrap;rounded=0;" vertex="1" parent="1">
          <mxGeometry x="170" y="40" width="40" height="20" as="geometry" />
        </mxCell>
      </root>
    </mxGraphModel>
  </diagram>
</mxfile>
